<?xml version="1.0" encoding="UTF-8" standalone="no"?><!DOCTYPE svg PUBLIC "-//W3C//DTD SVG 1.1//EN" "http://www.w3.org/Graphics/SVG/1.1/DTD/svg11.dtd"><svg width="100%" height="100%" viewBox="0 0 1225 772" version="1.1" xmlns="http://www.w3.org/2000/svg" xmlns:xlink="http://www.w3.org/1999/xlink" xml:space="preserve" xmlns:serif="http://www.serif.com/" style="fill-rule:evenodd;clip-rule:evenodd;stroke-linejoin:round;stroke-miterlimit:2;"><g><path d="M1224.67,96.616c-0,-53.324 -43.293,-96.616 -96.617,-96.616l-1031.44,-0c-53.324,-0 -96.616,43.292 -96.616,96.616l-0,578.607c-0,53.324 43.292,96.616 96.616,96.616l1031.44,0c53.324,0 96.617,-43.292 96.617,-96.616l-0,-578.607Z" style="fill:#b9cff4;fill-opacity:0.42;"/><path d="M1020.42,333.271c26.507,0 48.028,21.521 48.028,48.029l0,299.001c0,26.507 -21.521,48.028 -48.028,48.028l-773.991,0c-26.508,0 -48.028,-21.521 -48.028,-48.028l-0,-157.212l-44.795,-44.765l44.795,-31.668l-0,-65.356c-0,-26.508 21.52,-48.029 48.028,-48.029l773.991,0Z" style="fill:#fff;"/><path d="M247.645,54.175c-21.696,-0 -39.31,17.614 -39.31,39.311l-0,151.637c-0,21.697 17.614,39.311 39.31,39.311l800.23,0c21.696,0 39.311,-17.614 39.311,-39.311l-0,-80.313l35.991,-26.091l-35.991,-18.458l-0,-26.775c-0,-21.697 -17.615,-39.311 -39.311,-39.311l-800.23,-0Z" style="fill:#b9cff4;"/><g transform="matrix(1,0,0,0.995543,-2.84217e-14,-15.6625)"><text x="280.074px" y="209.613px" style="font-family:'NotoSansKR-Light', 'Noto Sans KR Light', sans-serif;font-weight:300;font-size:63.549px;fill:#00051a;">지금<tspan x="414.797px 473.261px 549.52px 607.984px 684.243px " y="209.613px 209.613px 209.613px 209.613px 209.613px ">경제뉴스알</tspan>려줘.</text></g><g transform="matrix(0.823079,0,0,0.823079,-148.69,-3243.67)"><g transform="matrix(1.00448,0,0,1,-2.3391,0)"><text x="522.487px" y="4504.07px" style="font-family:'NotoSansKR-Black', 'Noto Sans KR Black', sans-serif;font-weight:900;font-size:76.864px;fill:#00051a;">지금<tspan x="685.439px 756.154px 848.391px " y="4504.07px 4504.07px 4504.07px ">경제뉴</tspan>스의<tspan x="1082.06px " y="4504.07px ">타</tspan>이틀은</text></g><g transform="matrix(1.00448,0,0,1,-2.3391,0)"><text x="522.487px" y="4602.47px" style="font-family:'NotoSansKR-Black', 'Noto Sans KR Black', sans-serif;font-weight:900;font-size:76.864px;fill:#00051a;">&quot;대한민국<tspan x="875.371px " y="4602.47px ">일</tspan>자리<tspan x="1109.04px " y="4602.47px ">증</tspan>가&quot;와</text></g><g transform="matrix(1.00448,0,0,1,-2.3391,0)"><text x="522.487px" y="4700.86px" style="font-family:'NotoSansKR-Black', 'Noto Sans KR Black', sans-serif;font-weight:900;font-size:76.864px;fill:#00051a;">관련한<tspan x="756.154px " y="4700.86px ">뉴</tspan>스야.</text></g></g></g></svg>