<?xml version="1.0" encoding="UTF-8" standalone="no"?><!DOCTYPE svg PUBLIC "-//W3C//DTD SVG 1.1//EN" "http://www.w3.org/Graphics/SVG/1.1/DTD/svg11.dtd"><svg width="100%" height="100%" viewBox="0 0 1225 772" version="1.1" xmlns="http://www.w3.org/2000/svg" xmlns:xlink="http://www.w3.org/1999/xlink" xml:space="preserve" xmlns:serif="http://www.serif.com/" style="fill-rule:evenodd;clip-rule:evenodd;stroke-linejoin:round;stroke-miterlimit:2;"><g><path d="M1224.67,96.616c-0,-53.324 -43.293,-96.616 -96.617,-96.616l-1031.44,-0c-53.324,-0 -96.616,43.292 -96.616,96.616l-0,578.607c-0,53.324 43.292,96.616 96.616,96.616l1031.44,0c53.324,0 96.617,-43.292 96.617,-96.616l-0,-578.607Z" style="fill:#b9cff4;fill-opacity:0.42;"/><path d="M1020.42,333.271c26.507,0 48.028,21.521 48.028,48.029l0,299.001c0,26.507 -21.521,48.028 -48.028,48.028l-773.991,0c-26.508,0 -48.028,-21.521 -48.028,-48.028l-0,-157.212l-44.795,-44.765l44.795,-31.668l-0,-65.356c-0,-26.508 21.52,-48.029 48.028,-48.029l773.991,0Z" style="fill:#fff;"/><path d="M247.645,54.175c-21.696,-0 -39.31,17.614 -39.31,39.311l-0,151.637c-0,21.697 17.614,39.311 39.31,39.311l800.23,0c21.696,0 39.311,-17.614 39.311,-39.311l-0,-80.313l35.991,-26.091l-35.991,-18.458l-0,-26.775c-0,-21.697 -17.615,-39.311 -39.311,-39.311l-800.23,-0Z" style="fill:#b9cff4;"/><g transform="matrix(0.823079,0,0,0.823079,-147.021,-3553.46)"><g transform="matrix(1.00448,0,0,1,-2.3391,0)"><text x="522.487px" y="4504.07px" style="font-family:'NotoSansKR-Light', 'Noto Sans KR Light', sans-serif;font-weight:300;font-size:76.864px;fill:#00051a;">어제<tspan x="685.439px " y="4504.07px ">차</tspan>토엔터테인먼트</text></g><g transform="matrix(1.00448,0,0,1,-2.3391,0)"><text x="522.487px" y="4602.47px" style="font-family:'NotoSansKR-Light', 'Noto Sans KR Light', sans-serif;font-weight:300;font-size:76.864px;fill:#00051a;">종가<tspan x="685.439px " y="4602.47px ">알</tspan>려줘.</text></g></g><g transform="matrix(0.823079,0,0,0.823079,-150.821,-3190.82)"><g transform="matrix(1.00448,0,0,1,-2.3391,0)"><text x="522.487px" y="4504.07px" style="font-family:'NotoSansKR-Black', 'Noto Sans KR Black', sans-serif;font-weight:900;font-size:76.864px;fill:#00051a;">차토엔터의<tspan x="897.585px 968.3px 1060.54px " y="4504.07px 4504.07px 4504.07px ">어제종</tspan>가는</text></g><g transform="matrix(1.00448,0,0,1,-2.3391,0)"><g transform="matrix(76.8642,0,0,76.8642,522.487,4602.47)"><path d="M0.279,0.014c0.148,0 0.275,-0.076 0.275,-0.212c0,-0.093 -0.061,-0.152 -0.143,-0.176l0,-0.005c0.078,-0.033 0.119,-0.087 0.119,-0.16c0,-0.128 -0.101,-0.201 -0.255,-0.201c-0.088,0 -0.162,0.036 -0.231,0.093l0.09,0.109c0.045,-0.04 0.083,-0.063 0.133,-0.063c0.055,0 0.085,0.027 0.085,0.076c-0,0.054 -0.04,0.092 -0.167,0.092l-0,0.126c0.156,0 0.19,0.036 0.19,0.097c0,0.052 -0.045,0.08 -0.114,0.08c-0.058,0 -0.11,-0.03 -0.155,-0.072l-0.082,0.112c0.054,0.063 0.137,0.104 0.255,0.104Z" style="fill:#00051a;fill-rule:nonzero;"/></g><g transform="matrix(76.8642,0,0,76.8642,569.297,4602.47)"><path d="M0.042,-0l0.516,-0l0,-0.15l-0.137,0c-0.034,0 -0.085,0.005 -0.122,0.01c0.112,-0.116 0.225,-0.245 0.225,-0.366c0,-0.142 -0.1,-0.234 -0.244,-0.234c-0.106,0 -0.174,0.038 -0.247,0.115l0.097,0.096c0.036,-0.036 0.075,-0.072 0.126,-0.072c0.06,0 0.097,0.036 0.097,0.105c0,0.102 -0.131,0.226 -0.311,0.394l0,0.102Z" style="fill:#00051a;fill-rule:nonzero;"/></g><g transform="matrix(76.8642,0,0,76.8642,643.087,4602.47)"><path d="M0.078,-0l0.47,-0l0,-0.144l-0.134,0l0,-0.582l-0.131,0c-0.052,0.032 -0.104,0.052 -0.184,0.068l-0,0.11l0.137,-0l-0,0.404l-0.158,-0l-0,0.144Z" style="fill:#00051a;fill-rule:nonzero;"/></g><g transform="matrix(76.8642,0,0,76.8642,689.897,4602.47)"><path d="M0.285,0.014c0.143,0 0.269,-0.094 0.269,-0.255c0,-0.154 -0.106,-0.225 -0.232,-0.225c-0.028,-0 -0.05,0.004 -0.077,0.015l0.011,-0.126l0.265,0l-0,-0.149l-0.418,0l-0.019,0.369l0.078,0.051c0.044,-0.028 0.064,-0.037 0.105,-0.037c0.064,-0 0.109,0.038 0.109,0.107c-0,0.07 -0.045,0.106 -0.117,0.106c-0.059,0 -0.111,-0.031 -0.153,-0.071l-0.081,0.112c0.059,0.058 0.141,0.103 0.26,0.103Z" style="fill:#00051a;fill-rule:nonzero;"/></g><g transform="matrix(76.8642,0,0,76.8642,736.708,4602.47)"><path d="M0.305,0.014c0.157,0 0.263,-0.132 0.263,-0.38c0,-0.247 -0.106,-0.374 -0.263,-0.374c-0.158,0 -0.264,0.126 -0.264,0.374c-0,0.248 0.106,0.38 0.264,0.38Zm-0,-0.138c-0.053,0 -0.096,-0.046 -0.096,-0.242c-0,-0.196 0.043,-0.236 0.096,-0.236c0.053,0 0.095,0.04 0.095,0.236c0,0.196 -0.042,0.242 -0.095,0.242Z" style="fill:#00051a;fill-rule:nonzero;"/></g><text x="616.108px" y="4602.47px" style="font-family:'NotoSansKR-Black', 'Noto Sans KR Black', sans-serif;font-weight:900;font-size:76.864px;fill:#00051a;"><tspan x="616.108px 783.518px " y="4602.47px 4602.47px ">,원</tspan>이야.</text></g></g></g></svg>