<?xml version="1.0" encoding="UTF-8" standalone="no"?><!DOCTYPE svg PUBLIC "-//W3C//DTD SVG 1.1//EN" "http://www.w3.org/Graphics/SVG/1.1/DTD/svg11.dtd"><svg width="100%" height="100%" viewBox="0 0 1225 772" version="1.1" xmlns="http://www.w3.org/2000/svg" xmlns:xlink="http://www.w3.org/1999/xlink" xml:space="preserve" xmlns:serif="http://www.serif.com/" style="fill-rule:evenodd;clip-rule:evenodd;stroke-linejoin:round;stroke-miterlimit:2;"><g><path d="M1224.67,96.616c-0,-53.324 -43.293,-96.616 -96.617,-96.616l-1031.44,0c-53.324,0 -96.616,43.292 -96.616,96.616l0,578.607c0,53.324 43.292,96.616 96.616,96.616l1031.44,0c53.324,0 96.617,-43.292 96.617,-96.616l-0,-578.607Z" style="fill:#b9cff4;fill-opacity:0.42;"/><path d="M1020.42,333.271c26.507,0 48.028,21.521 48.028,48.029l0,299.001c0,26.507 -21.521,48.028 -48.028,48.028l-773.991,0c-26.508,0 -48.028,-21.521 -48.028,-48.028l-0,-157.212l-44.795,-44.765l44.795,-31.668l-0,-65.356c-0,-26.508 21.52,-48.029 48.028,-48.029l773.991,0Z" style="fill:#fff;"/><path d="M247.645,54.175c-21.696,-0 -39.31,17.614 -39.31,39.311l-0,151.637c-0,21.697 17.614,39.311 39.31,39.311l800.23,0c21.696,0 39.311,-17.614 39.311,-39.311l-0,-80.313l35.991,-26.091l-35.991,-18.458l-0,-26.775c-0,-21.697 -17.615,-39.311 -39.311,-39.311l-800.23,-0Z" style="fill:#b9cff4;"/><g transform="matrix(0.823079,0,0,0.823079,-138.693,-3549.93)"><g transform="matrix(1.00448,0,0,1,-2.3391,0)"><text x="522.487px" y="4504.07px" style="font-family:'NotoSansKR-Light', 'Noto Sans KR Light', sans-serif;font-weight:300;font-size:76.864px;fill:#00051a;">엑셀에서<tspan x="826.869px " y="4504.07px ">특</tspan>정셀을<tspan x="1131.25px " y="4504.07px ">다</tspan></text></g><g transform="matrix(1.00448,0,0,1,-2.3391,0)"><text x="522.487px" y="4602.47px" style="font-family:'NotoSansKR-Light', 'Noto Sans KR Light', sans-serif;font-weight:300;font-size:76.864px;fill:#00051a;">더하려면<tspan x="826.869px " y="4602.47px ">어</tspan>떻게<tspan x="1060.54px " y="4602.47px ">해</tspan>?</text></g></g><g transform="matrix(0.823079,0,0,0.823079,-140.362,-3240.14)"><g transform="matrix(1.00448,0,0,1,-2.3391,0)"><text x="522.487px" y="4504.07px" style="font-family:'NotoSansKR-Black', 'Noto Sans KR Black', sans-serif;font-weight:900;font-size:76.864px;fill:#00051a;">엑셀에는 SUM 함수가<tspan x="1249.39px " y="4504.07px ">있</tspan>어.</text></g><g transform="matrix(1.00448,0,0,1,-2.3391,0)"><g transform="matrix(76.8642,0,0,76.8642,825.947,4602.47)"><path d="M0.078,-0l0.47,-0l0,-0.144l-0.134,0l0,-0.582l-0.131,0c-0.052,0.032 -0.104,0.052 -0.184,0.068l-0,0.11l0.137,-0l-0,0.404l-0.158,-0l-0,0.144Z" style="fill:#00051a;fill-rule:nonzero;"/></g><g transform="matrix(76.8642,0,0,76.8642,950.467,4602.47)"><path d="M0.078,-0l0.47,-0l0,-0.144l-0.134,0l0,-0.582l-0.131,0c-0.052,0.032 -0.104,0.052 -0.184,0.068l-0,0.11l0.137,-0l-0,0.404l-0.158,-0l-0,0.144Z" style="fill:#00051a;fill-rule:nonzero;"/></g><g transform="matrix(76.8642,0,0,76.8642,997.277,4602.47)"><path d="M0.305,0.014c0.157,0 0.263,-0.132 0.263,-0.38c0,-0.247 -0.106,-0.374 -0.263,-0.374c-0.158,0 -0.264,0.126 -0.264,0.374c-0,0.248 0.106,0.38 0.264,0.38Zm-0,-0.138c-0.053,0 -0.096,-0.046 -0.096,-0.242c-0,-0.196 0.043,-0.236 0.096,-0.236c0.053,0 0.095,0.04 0.095,0.236c0,0.196 -0.042,0.242 -0.095,0.242Z" style="fill:#00051a;fill-rule:nonzero;"/></g><text x="522.487px" y="4602.47px" style="font-family:'NotoSansKR-Black', 'Noto Sans KR Black', sans-serif;font-weight:900;font-size:76.864px;fill:#00051a;">=SUM(A<tspan x="872.757px 899.737px 1044.09px " y="4602.47px 4602.47px 4602.47px ">:A)</tspan> 처럼</text></g><g transform="matrix(1.00448,0,0,1,-2.3391,0)"><text x="522.487px" y="4700.86px" style="font-family:'NotoSansKR-Black', 'Noto Sans KR Black', sans-serif;font-weight:900;font-size:76.864px;fill:#00051a;">SUM함수를<tspan x="931.328px " y="4700.86px ">이</tspan>용해보자</text></g></g></g></svg>