<?xml version="1.0" encoding="UTF-8" standalone="no"?><!DOCTYPE svg PUBLIC "-//W3C//DTD SVG 1.1//EN" "http://www.w3.org/Graphics/SVG/1.1/DTD/svg11.dtd"><svg width="100%" height="100%" viewBox="0 0 64 65" version="1.1" xmlns="http://www.w3.org/2000/svg" xmlns:xlink="http://www.w3.org/1999/xlink" xml:space="preserve" xmlns:serif="http://www.serif.com/" style="fill-rule:evenodd;clip-rule:evenodd;stroke-linejoin:round;stroke-miterlimit:2;"><g><ellipse cx="31.886" cy="32.373" rx="31.886" ry="32.373" style="fill:#0d0d0d;"/><g><path d="M38.968,17.083c-0.627,-0.627 -1.644,-0.627 -2.271,-0l-14.163,14.163c-0.627,0.626 -0.627,1.644 -0,2.27l2.271,2.271c0.626,0.627 1.644,0.627 2.27,0l14.163,-14.163c0.627,-0.626 0.627,-1.644 0,-2.271l-2.27,-2.27Z" style="fill:#727786;"/><path d="M41.095,45.48c0.606,-0.607 0.606,-1.593 -0,-2.199l-14.175,-14.175c-0.607,-0.606 -1.592,-0.606 -2.199,0l-2.198,2.199c-0.607,0.607 -0.607,1.592 -0,2.199l14.174,14.174c0.607,0.607 1.592,0.607 2.199,0l2.199,-2.198Z" style="fill:#727786;"/></g></g></svg>