<?xml version="1.0" encoding="UTF-8" standalone="no"?><!DOCTYPE svg PUBLIC "-//W3C//DTD SVG 1.1//EN" "http://www.w3.org/Graphics/SVG/1.1/DTD/svg11.dtd"><svg width="100%" height="100%" viewBox="0 0 70 71" version="1.1" xmlns="http://www.w3.org/2000/svg" xmlns:xlink="http://www.w3.org/1999/xlink" xml:space="preserve" xmlns:serif="http://www.serif.com/" style="fill-rule:evenodd;clip-rule:evenodd;stroke-linejoin:round;stroke-miterlimit:2;"><g><ellipse cx="34.719" cy="35.249" rx="34.719" ry="35.249" style="fill:#0d0d0d;"/><g><path d="M27.008,18.6c0.683,-0.682 1.79,-0.682 2.473,0l15.421,15.422c0.682,0.682 0.682,1.79 -0,2.472l-2.472,2.472c-0.683,0.683 -1.791,0.683 -2.473,0l-15.421,-15.421c-0.682,-0.682 -0.682,-1.79 -0,-2.472l2.472,-2.473Z" style="fill:#727786;"/><path d="M24.692,49.52c-0.66,-0.661 -0.66,-1.734 0,-2.394l15.434,-15.434c0.661,-0.661 1.734,-0.661 2.394,0l2.394,2.394c0.661,0.661 0.661,1.734 0,2.395l-15.433,15.433c-0.661,0.661 -1.734,0.661 -2.394,0l-2.395,-2.394Z" style="fill:#727786;"/></g></g></svg>